<?xml version="1.0" encoding="utf-8"?>
<svg viewBox="0 0 500 500" xmlns="http://www.w3.org/2000/svg">
  <g style="" transform="matrix(1, 0, 0, 1.050061, 4.068509, 42.411939)">
    <path fill="#4285f4" d="M 39.851 363.546 L 115.776 363.546 L 115.776 192.71 L 7.312 117.341 L 7.312 333.399 C 7.312 350.081 21.9 363.546 39.851 363.546" style=""/>
    <path fill="#34a853" d="M 376.088 363.546 L 452.012 363.546 C 470.017 363.546 484.551 350.03 484.551 333.399 L 484.551 117.341 L 376.088 192.71" style=""/>
    <path fill="#fbbc04" d="M 376.088 62.07 L 376.088 192.71 L 484.551 117.341 L 484.551 77.144 C 484.551 39.861 438.617 18.607 406.458 40.967" style=""/>
    <path fill="#ea4335" d="M 115.776 192.71 L 115.776 62.07 L 245.932 152.513 L 376.088 62.07 L 376.088 192.71 L 245.932 283.153" style=""/>
    <path fill="#c5221f" d="M 7.312 77.144 L 7.312 117.341 L 115.776 192.71 L 115.776 62.07 L 85.406 40.967 C 53.192 18.607 7.312 39.861 7.312 77.144" style=""/>
  </g>
</svg>