<svg width="86" height="69" viewBox="0 0 86 69" fill="none" xmlns="http://www.w3.org/2000/svg">
<g clip-path="url(#clip0_12_2174)">
<path d="M4.52541 48.9902C4.52541 48.9902 4.24358 47.7643 4.25732 47.5987C4.27107 47.4331 9.34634 49.4111 9.34634 49.4111L18.3627 49.1282L27.0491 47.9782L35.9187 48.4957L41.4179 50.6025L46.3809 50.0528L50.8008 48.5923L61.3134 48.0104C61.3134 48.0104 70.4397 48.5095 70.4901 48.5578C70.5406 48.6061 78.3631 48.9028 78.3631 48.9028L82.2858 47.21L82.1598 47.4676C82.1598 47.4676 81.823 48.222 81.5457 48.728L81.296 49.2202L79.4171 50.7175C79.4171 50.7175 74.3098 52.3643 74.2273 52.3735C74.1448 52.3827 71.3608 52.9002 71.3608 52.9002C71.3608 52.9002 65.6692 52.9347 65.6028 52.9002C65.5363 52.8657 56.717 51.9388 56.717 51.9388L47.1874 52.6863C47.1874 52.6863 43.3037 53.5166 43.2693 53.5327C43.2349 53.5488 40.27 53.6316 40.2035 53.6155C40.1371 53.5994 28.7469 51.6559 28.7469 51.6559L22.8582 52.3873C22.8582 52.3873 16.3486 53.4315 16.2363 53.4315C16.1241 53.4315 9.82064 52.5368 9.82064 52.5368L5.63899 50.1402L4.52541 48.9902Z" fill="white"/>
<path d="M0 39.0492C0.492633 39.1803 0.944023 39.4241 1.43436 39.569C2.6923 39.937 3.93877 39.7576 5.18525 39.5276C6.43173 39.2976 7.69195 38.9572 8.96134 38.7364C10.832 38.4219 12.7538 38.6992 14.4605 39.5299C14.9833 39.7607 15.4901 40.0266 15.9774 40.3257C16.0504 40.3771 16.1367 40.406 16.2259 40.4089C16.315 40.4118 16.403 40.3885 16.4792 40.3418C17.7468 39.6647 19.1236 39.2178 20.5462 39.0216C21.7996 38.8652 23.0163 39.0653 24.2123 39.3758C25.5299 39.7139 26.813 40.167 28.1442 40.4637C29.4738 40.7928 30.8716 40.7078 32.1518 40.2199C32.2434 40.1854 32.3557 40.075 32.4473 40.1854C32.539 40.2958 32.4336 40.374 32.4015 40.4591C31.9249 41.7264 30.9488 42.3842 29.6794 42.6303C27.8464 42.9868 26.0866 42.582 24.3773 41.9081C23.5868 41.5953 22.8078 41.2181 21.9531 41.1445C19.8909 40.972 17.925 41.2779 16.2958 42.7223C16.163 42.8396 16.108 42.8396 15.9842 42.7085C14.8569 41.5102 13.3905 41.0525 11.8255 40.8041C10.5721 40.6063 9.38753 40.8754 8.21666 41.2848C6.93604 41.7561 5.57979 41.9861 4.21602 41.9633C3.22388 41.9357 2.26153 41.7563 1.40458 41.1951C0.799239 40.8016 0.344536 40.2138 0.114566 39.5276C0.0847787 39.4402 0.0962353 39.3298 0 39.2677V39.0492Z" fill="#D2AC68"/>
<path d="M84.2701 45.0066C84.1271 45.5135 83.8499 45.9721 83.4682 46.3337C82.2332 47.6677 80.6911 48.5302 79.0505 49.2202C76.9695 50.1245 74.7131 50.5497 72.447 50.4645C70.3848 50.3771 68.3226 50.1724 66.2787 49.9194C64.3976 49.6894 62.521 49.4456 60.6306 49.2869C58.9834 49.1444 57.3289 49.1052 55.6768 49.1696C51.5524 49.349 47.5037 49.9401 43.652 51.5064C43.4509 51.6013 43.2315 51.6505 43.0093 51.6505C42.7871 51.6505 42.5676 51.6013 42.3665 51.5064C40.1485 50.5726 37.8206 50.0367 35.4514 49.6664C32.8572 49.2562 30.2309 49.0876 27.6059 49.1627C25.7339 49.2156 23.8756 49.4203 22.0174 49.6434C20.2095 49.8619 18.404 50.1034 16.5892 50.269C15.2956 50.4093 13.9951 50.4761 12.694 50.4691C9.30065 50.3987 6.02266 49.2198 3.35687 47.1111C2.77729 46.6777 2.29225 46.1298 1.93167 45.5011C1.82997 45.3497 1.7627 45.1778 1.73462 44.9974L1.7667 44.9629C3.60663 46.6488 5.87045 47.3802 8.24883 47.8402C10.8128 48.3324 13.3951 48.3002 15.9843 48.0863C18.5735 47.8724 21.1925 47.4722 23.8 47.2031C25.6842 46.9805 27.5809 46.8829 29.4779 46.911C33.7237 47.0329 37.9076 47.555 41.8968 49.1052C42.2446 49.2616 42.6213 49.3424 43.0024 49.3424C43.3834 49.3424 43.7602 49.2616 44.1079 49.1052C46.4222 48.1553 48.8624 47.6631 51.3348 47.3204C53.4531 47.0222 55.5909 46.8853 57.7298 46.911C59.7337 46.9596 61.7337 47.1131 63.7216 47.371C65.7838 47.6171 67.846 47.8954 69.9082 48.061C71.4582 48.2027 73.0157 48.2434 74.571 48.1829C77.064 48.0679 79.4905 47.6263 81.7818 46.5729C82.6777 46.1654 83.5061 45.6224 84.2381 44.9629L84.2701 45.0066Z" fill="#FF9933"/>
<path d="M4.47729 48.7785C6.48449 50.7772 9.03014 51.5385 11.7201 51.9433C14.307 52.3389 16.8871 52.1297 19.4648 51.8238C22.1456 51.5064 24.8082 51.044 27.5027 50.8669C29.9933 50.7142 32.4926 50.7966 34.9679 51.113C37.1796 51.3487 39.3556 51.8475 41.45 52.5988C41.9082 52.769 42.3459 52.9714 42.7881 53.1715C42.8503 53.2056 42.9201 53.2234 42.9909 53.2234C43.0617 53.2234 43.1315 53.2056 43.1937 53.1715C45.2559 52.1687 47.4418 51.6535 49.6758 51.2878C51.8869 50.9354 54.1231 50.7662 56.3619 50.7818C58.4898 50.8189 60.613 50.9957 62.718 51.3108C65.6967 51.7133 68.664 52.1986 71.6793 52.1435C74.2296 52.0951 76.7065 51.6696 79.0299 50.5472C79.9796 50.1065 80.8354 49.4856 81.5503 48.7188C81.4446 49.0561 81.2976 49.3791 81.1127 49.6801C80.5273 50.5538 79.774 51.3013 78.897 51.8789C76.1989 53.7858 72.9195 54.6812 69.6309 54.4089C67.06 54.2134 64.5098 53.85 61.955 53.505C58.5916 53.0305 55.1834 52.9656 51.8045 53.3118C49.2198 53.5901 46.6696 54.0501 44.2225 55.0138C43.8055 55.1771 43.3976 55.5014 42.9852 55.4991C42.5727 55.4968 42.1649 55.1748 41.7479 55.0092C39.6215 54.1628 37.3944 53.712 35.142 53.4199C32.8851 53.1303 30.6081 53.0287 28.3345 53.1163C26.325 53.1922 24.3384 53.4682 22.3496 53.7373C19.7123 54.0961 17.0795 54.54 14.401 54.4273C11.0465 54.2801 8.13424 52.9875 5.67565 50.6944C4.96535 50.0205 4.5827 49.342 4.47729 48.7785Z" fill="#14880A"/>
<path d="M43.4663 31.4823C43.7413 31.0936 44.0094 30.7486 44.2408 30.3806C44.9282 29.2881 45.0404 28.0806 44.9282 26.8225C44.8159 25.5368 44.6509 24.2557 44.5455 22.97C44.3553 20.6976 45.2077 18.8001 46.6879 17.1395C46.9949 16.7945 47.3088 16.4495 47.6434 16.1321C47.7189 16.0744 47.7698 15.9901 47.7859 15.8963C47.8021 15.8024 47.7823 15.7059 47.7304 15.6261C47.2012 14.4599 46.8794 13.2098 46.7796 11.9323C46.7207 10.7703 46.9573 9.61237 47.4669 8.56739C47.9917 7.43809 48.6653 6.39159 49.2656 5.30369C49.528 4.82265 49.7636 4.32739 49.9714 3.82019C50.4383 2.72086 50.4945 1.48932 50.1295 0.351787C50.0997 0.250587 50.0057 0.121787 50.0905 0.0435868C50.1753 -0.0346132 50.3196 0.0573868 50.4159 0.103387C52.3016 0.942887 53.0967 2.69549 52.5789 4.86209C52.2787 6.07414 51.7327 7.21102 50.975 8.20169C50.7573 8.49379 50.5488 8.79279 50.3334 9.08719C49.2908 10.5017 49.1465 12.0933 49.4398 13.7585C49.5915 14.7022 50.0134 15.5813 50.6542 16.2885C50.7779 16.4242 50.7825 16.4748 50.6061 16.5668C48.773 17.5328 47.7832 19.1129 47.3478 21.0886C47.1416 22.0086 47.3272 22.9286 47.554 23.8348C47.9275 25.3344 48.0444 26.8386 47.648 28.352C47.1485 30.3599 45.4804 31.6019 43.4663 31.4823Z" fill="#D2AC68"/>
<path d="M42.5063 31.4845C40.4189 31.6087 38.7348 30.2609 38.2605 28.0759C37.9935 26.7572 38.0303 25.3946 38.3682 24.0923C38.5148 23.4759 38.705 22.8641 38.6981 22.2247C38.6706 19.7384 37.5731 17.8547 35.4353 16.6104C35.2061 16.4793 35.2061 16.431 35.3711 16.2401C36.1845 15.3201 36.5351 14.2069 36.6497 13.0017C36.7303 12.1922 36.6454 11.3746 36.4004 10.5991C36.1553 9.82355 35.7552 9.10637 35.2245 8.49144C34.2643 7.33255 33.6096 5.95011 33.3204 4.47104C32.9515 2.53904 33.8611 0.791041 35.6323 0.0734411C35.7148 0.0389411 35.8065 -0.0507589 35.8958 0.0412411C35.9508 0.0964411 35.9142 0.179241 35.8958 0.248241C35.252 2.06984 35.8317 3.69824 36.7047 5.27144C37.2546 6.26274 37.8503 7.23334 38.3682 8.23614C39.3351 10.0761 39.4497 11.9713 38.8745 13.9424C38.7133 14.5173 38.5096 15.0793 38.265 15.6237C38.2133 15.7107 38.1964 15.8142 38.2176 15.9132C38.2389 16.0122 38.2968 16.0995 38.3796 16.1573C39.4313 17.1854 40.3639 18.3032 40.9505 19.674C41.406 20.7999 41.5692 22.0234 41.4248 23.2298C41.3079 24.4925 41.1452 25.7598 41.0467 27.011C40.9276 28.5658 41.2758 30.001 42.3253 31.1924C42.3894 31.2637 42.4444 31.3465 42.5017 31.4224C42.5057 31.4429 42.5073 31.4637 42.5063 31.4845Z" fill="#D2AC68"/>
<path d="M39.6581 32.0503C38.2558 32.6828 36.4503 32.3309 35.3183 31.22C34.1864 30.1091 33.5976 28.6693 33.2928 27.1237C33.1026 26.1577 33.1416 25.1365 32.7223 24.2303C31.7026 22.0154 29.9612 20.6998 27.5508 20.2398C27.8099 19.6854 27.9459 19.0811 27.9495 18.4688C27.9105 16.2401 27.1315 14.3817 25.2251 13.1006C24.2444 12.4428 23.2821 11.7597 22.5053 10.8489C21.7285 9.93806 21.1168 8.91916 20.9816 7.67256C20.867 6.62606 21.5636 5.17246 22.5259 4.61816C22.5672 5.01606 22.5786 5.40246 22.6542 5.76816C22.8772 6.76267 23.3789 7.67243 24.1001 8.39016C25.0392 9.34616 26.0388 10.2404 27.0925 11.0674C29.1937 12.7993 30.2408 15.0119 30.1285 17.7213C30.0919 18.5884 30.3301 19.0162 31.1275 19.3796C32.486 19.9716 33.6662 20.9105 34.5508 22.1028C35.3 23.1378 35.6758 24.3361 35.9874 25.5528C36.2417 26.5441 36.4686 27.54 36.7779 28.5175C37.1802 29.9303 38.1146 31.1305 39.3831 31.864C39.4656 31.9169 39.5435 31.9698 39.6581 32.0503Z" fill="#D2AC68"/>
<path d="M46.374 32.0368C46.6742 31.8298 46.9789 31.6343 47.2722 31.4204C48.1033 30.7926 48.7288 29.9301 49.0686 28.9433C49.5077 27.677 49.8637 26.3831 50.1341 25.0701C50.7459 22.4734 52.3292 20.7001 54.6296 19.4811C54.9413 19.3155 55.2506 19.143 55.5737 19.005C55.6698 18.9775 55.7524 18.9153 55.8057 18.8304C55.859 18.7455 55.8792 18.6439 55.8624 18.545C55.7806 17.3013 55.9076 16.0526 56.2381 14.8512C56.6758 13.3217 57.6771 12.1878 58.8227 11.1597C59.8286 10.2558 60.9056 9.43466 61.845 8.45716C62.6699 7.60156 63.2496 6.61716 63.4008 5.42346C63.4329 5.17276 63.4489 4.91746 63.4741 4.63916C63.6397 4.67971 63.7867 4.77538 63.8911 4.91056C65.0368 6.00536 65.3301 7.57626 64.6519 9.07586C64.0424 10.4237 63.0479 11.4495 61.8839 12.3212C61.3386 12.7283 60.7658 13.1009 60.2296 13.5195C58.9465 14.5246 58.3668 15.9161 58.1079 17.4778C57.9496 18.4115 58.0683 19.3713 58.4493 20.2378C56.0571 20.6978 54.3249 22.0065 53.2892 24.1938C52.9249 24.962 52.9066 25.8245 52.7828 26.6525C52.5262 28.366 51.9763 29.9553 50.7092 31.1904C49.5108 32.3542 48.0742 32.6164 46.4886 32.1426C46.465 32.1357 46.4432 32.124 46.4244 32.1081C46.4059 32.0856 46.3891 32.0617 46.374 32.0368Z" fill="#D2AC68"/>
<path d="M13.1613 11.355C13.375 11.9644 13.6637 12.5446 14.0205 13.0823C14.7079 14.0621 15.7276 14.6302 16.7518 15.1684C17.721 15.6744 18.7086 16.1482 19.6961 16.6197C22.0424 17.7421 23.4402 19.6396 24.0588 22.1167C24.2375 22.8205 24.5171 23.1264 25.2411 23.2667C26.749 23.5081 28.1738 24.1205 29.3884 25.0492C30.4814 25.9117 31.2031 27.0732 31.8859 28.2692C32.3946 29.157 32.8987 30.0448 33.4899 30.8866C34.2911 32.039 35.4812 32.861 36.8398 33.2004C36.8833 33.2119 36.9268 33.228 37.0368 33.2648C36.4822 33.6822 35.8247 33.9398 35.135 34.01C33.2814 34.2101 31.9524 33.2763 30.8136 31.9607C30.0964 31.0818 29.5225 30.0944 29.1134 29.0351C28.5826 27.7959 27.6914 26.7464 26.5565 26.0241C25.4215 25.3018 24.0958 24.9404 22.7528 24.9871C22.2693 25.0032 22.2945 25.0055 22.3105 24.5271C22.3158 23.4967 22.0272 22.4863 21.4788 21.6153C20.68 20.1986 19.3663 19.147 17.8127 18.6805C16.4184 18.2762 15.1252 17.5801 14.0183 16.6381C12.994 15.7181 12.2723 14.6647 12.4143 13.2065C12.4789 12.5296 12.7384 11.8862 13.1613 11.355Z" fill="#D2AC68"/>
<path d="M72.8341 11.4009C73.7666 12.4313 73.8514 14.108 73.0769 15.3592C72.456 16.3643 71.544 17.0382 70.5565 17.6385C69.5689 18.2388 68.4943 18.4987 67.477 18.9541C65.2108 19.9638 64.0079 21.7601 63.6757 24.1866C63.6694 24.2631 63.6694 24.34 63.6757 24.4166C63.6963 24.9916 63.6963 24.9916 63.1326 24.9778C61.8076 24.9569 60.5063 25.3314 59.3935 26.0537C58.2808 26.7759 57.4066 27.8135 56.8819 29.035C56.468 30.0919 55.8946 31.0787 55.1817 31.9606C54.3592 32.9289 53.3991 33.6948 52.1251 33.9593C51.5895 34.0687 51.0374 34.0679 50.5021 33.9568C49.9669 33.8457 49.4597 33.6267 49.0112 33.313C49.0616 33.1612 49.1831 33.1934 49.2656 33.1704C50.6758 32.7793 51.892 31.878 52.6796 30.6404C53.2639 29.7549 53.8115 28.8464 54.3065 27.9103C55.6354 25.3803 57.7228 23.9129 60.4655 23.3103C60.7581 23.2312 61.0549 23.169 61.3546 23.124C61.6272 23.0964 61.7074 22.9607 61.7647 22.7192C62.1153 21.2311 62.6698 19.8373 63.6482 18.6413C64.3356 17.8041 65.2154 17.2245 66.1457 16.7116C67.3395 16.0561 68.6112 15.5616 69.7958 14.8716C70.8498 14.2736 71.8053 13.5767 72.362 12.4566C72.527 12.1231 72.6668 11.7735 72.8341 11.4009Z" fill="#D2AC68"/>
<path d="M34.8119 35.2566C34.0535 36.0892 33.208 36.5538 32.1609 36.6366C30.5822 36.7493 29.2921 36.0593 28.0892 35.1255C27.2139 34.4355 26.5334 33.5822 25.8575 32.7197C24.8859 31.48 23.5661 30.8797 22.0722 30.5623C20.9554 30.2895 19.7838 30.3478 18.6994 30.7302C18.5734 30.7762 18.5023 30.7854 18.4703 30.6198C18.1059 28.6694 16.8205 27.4435 15.2166 26.4798C14.3001 25.9301 13.2667 25.8312 12.2379 25.7254C10.4484 25.5391 8.7459 25.0998 7.2955 23.9613C6.70291 23.5231 6.26841 22.9034 6.0576 22.1955C5.8468 21.4877 5.87113 20.7302 6.12693 20.0375C6.14297 19.9938 6.16817 19.9524 6.18879 19.9087C6.3194 19.9087 6.3446 20.0283 6.39272 20.0996C7.22218 21.3347 8.4022 22.0385 9.80907 22.4387C11.1082 22.809 12.4303 23.0597 13.7478 23.3357C16.4974 23.9084 18.3717 25.5598 19.6755 27.9564C19.7404 28.1205 19.8591 28.2574 20.0119 28.3448C20.1648 28.4322 20.3427 28.4647 20.5164 28.4371C21.9265 28.3371 23.3429 28.5009 24.6935 28.9201C26.098 29.3801 27.1864 30.3162 28.2244 31.3213C29.0378 32.1102 29.8054 32.9428 30.6578 33.6926C31.719 34.6438 33.0784 35.1923 34.5003 35.2428C34.5759 35.2359 34.6469 35.2451 34.8119 35.2566Z" fill="#D2AC68"/>
<path d="M79.7585 19.8213C80.4459 21.2565 79.9991 22.9171 78.7274 23.9314C77.4557 24.9457 75.9778 25.408 74.406 25.638C73.8033 25.7231 73.2007 25.7806 72.5981 25.868C70.3664 26.1762 68.0682 28.2186 67.5732 30.33C67.5507 30.4001 67.5369 30.4727 67.532 30.5462C67.532 30.7555 67.4587 30.7762 67.2616 30.7141C64.9497 30.0241 62.8417 30.5025 60.9284 31.9101C60.2594 32.4046 59.8263 33.1429 59.2856 33.7685C58.1743 35.0542 56.8934 36.1007 55.207 36.5285C54.5885 36.7002 53.9371 36.7153 53.3113 36.5724C52.6855 36.4295 52.1048 36.1331 51.6211 35.7097C51.4608 35.6034 51.333 35.4545 51.2522 35.2796C51.7632 35.1968 52.2673 35.1807 52.7622 35.0749C53.9353 34.8219 54.8702 34.1549 55.7203 33.3545C56.6368 32.5035 57.5029 31.6203 58.3897 30.7509C59.9569 29.2191 61.8679 28.5222 64.024 28.4509C64.5716 28.4302 65.1192 28.4233 65.6669 28.4509C65.7841 28.4688 65.9039 28.4459 66.0064 28.3861C66.1089 28.3263 66.188 28.2331 66.2305 28.122C66.858 26.9043 67.7184 25.8226 68.7624 24.9388C69.9081 23.9843 71.2966 23.5588 72.715 23.246C73.5078 23.0666 74.3051 22.9079 75.1002 22.7331C76.9722 22.3099 78.709 21.6636 79.7585 19.8213Z" fill="#D2AC68"/>
<path d="M52.6223 37.55C53.0348 37.5937 53.4059 37.6374 53.768 37.6696C54.8765 37.7442 55.9846 37.5178 56.9758 37.0141C58.0138 36.5242 58.9876 35.9285 59.9889 35.3742C61.0567 34.7831 62.1519 34.2656 63.3709 34.0632C64.709 33.8332 66.0311 33.9827 67.3486 34.2426C67.4455 34.25 67.541 34.2701 67.6327 34.3024C68.3614 34.6612 68.8517 34.3898 69.4131 33.8424C70.7879 32.513 72.4055 31.5976 74.3486 31.3837C75.4257 31.273 76.51 31.2507 77.5908 31.317C78.9126 31.4217 80.2424 31.3505 81.5456 31.1054C82.365 30.9063 83.1278 30.5207 83.7751 29.9784C83.853 29.9186 83.9332 29.7783 84.0454 29.8427C84.1577 29.9071 84.0958 30.0428 84.0981 30.1486C84.121 31.5677 83.2778 32.72 81.7633 33.3088C80.3072 33.845 78.7414 34.0109 77.2059 33.7918C75.634 33.6055 74.0897 33.4836 72.5888 34.1736C71.3149 34.7624 70.1761 35.4938 69.5116 36.7933C69.4383 36.9382 69.3718 36.952 69.2321 36.8715C67.399 35.8296 65.4789 35.8296 63.5038 36.3333C62.5872 36.5633 61.8494 37.1452 61.0979 37.6834C59.9055 38.5768 58.524 39.182 57.0606 39.4521C55.6858 39.6821 54.4187 39.4797 53.3441 38.5206C53.0418 38.2483 52.7965 37.9183 52.6223 37.55Z" fill="#D2AC68"/>
<path d="M33.4693 37.4645C33.2246 37.9402 32.8766 38.3547 32.4511 38.6776C32.0256 39.0004 31.5334 39.2233 31.0107 39.3298C29.5053 39.6564 28.103 39.2608 26.7351 38.6398C25.8621 38.2465 25.1151 37.66 24.32 37.1402C21.9233 35.5716 19.4372 35.5049 16.8916 36.7561C16.7679 36.8182 16.6624 36.9033 16.5708 36.7124C15.6909 35.0771 14.2062 34.2698 12.4991 33.7569C11.4818 33.4441 10.4553 33.5269 9.42647 33.6626C7.73319 33.8742 6.05594 33.8719 4.42911 33.2624C3.46446 32.9013 2.6625 32.3424 2.22257 31.3603C2.03195 30.9354 1.94552 30.4709 1.97053 30.0056C1.97053 29.9159 1.92928 29.7917 2.04843 29.7503C2.16758 29.7089 2.19966 29.8124 2.26381 29.863C2.91449 30.4194 3.68708 30.8135 4.51847 31.013C5.66477 31.2333 6.8338 31.3106 7.99898 31.243C9.64873 31.1809 11.3076 31.0958 12.9276 31.5374C14.2589 31.8985 15.3862 32.6322 16.4242 33.5154C16.7039 33.7507 16.9716 34.0002 17.2261 34.2629C17.2878 34.3372 17.3713 34.3901 17.4647 34.414C17.5581 34.438 17.6566 34.4318 17.7462 34.3963C18.9254 34.0525 20.1456 33.8707 21.3734 33.8558C22.8811 33.8443 24.2627 34.3158 25.5825 35.0058C26.7557 35.6222 27.8739 36.3582 29.0768 36.9033C30.667 37.6278 31.391 37.7198 33.4693 37.4645Z" fill="#D2AC68"/>
<path d="M86 39.0563C85.9171 39.5496 85.719 40.0163 85.4219 40.4181C85.1248 40.8198 84.7372 41.1453 84.2907 41.3678C83.2207 41.929 82.0681 42.0072 80.8858 41.9451C79.3713 41.8692 77.9896 41.239 76.5323 40.9377C74.0806 40.434 71.858 40.9676 69.9929 42.7179C69.8829 42.8214 69.8325 42.8582 69.7088 42.7386C68.6914 41.7496 67.4175 41.3885 66.0564 41.1608C64.3838 40.8779 62.8623 41.3563 61.3569 42.0003C60.2448 42.4671 59.0562 42.7236 57.8512 42.757C56.6277 42.803 55.4476 42.6098 54.4692 41.7657C54.0622 41.4138 53.7554 40.9598 53.5802 40.4501C53.5504 40.3627 53.4656 40.2615 53.5435 40.1764C53.6214 40.0913 53.7246 40.1764 53.8093 40.2132C55.0279 40.692 56.3611 40.7945 57.6381 40.5076C58.518 40.3213 59.3818 40.0775 60.2434 39.8176C61.4853 39.4404 62.7317 39.0609 64.0401 38.9827C65.9281 38.8677 67.6649 39.4289 69.3284 40.2546C69.464 40.3363 69.6204 40.3764 69.7784 40.3699C69.9364 40.3634 70.0891 40.3105 70.2175 40.2178C71.5537 39.382 73.0532 38.8439 74.6145 38.64C75.7968 38.5089 76.9631 38.6952 78.1225 38.9367C79.4973 39.2196 80.8354 39.583 82.2285 39.7371C83.321 39.8545 84.4252 39.6899 85.4364 39.2587C85.583 39.1989 85.7274 39.1322 85.8717 39.0724C85.9139 39.0631 85.9569 39.0577 86 39.0563Z" fill="#D2AC68"/>
<path d="M84.238 44.9742C84.2541 44.9581 84.2793 44.9282 84.2816 44.9282C84.3205 44.9581 84.2999 44.9834 84.2701 45.0064L84.238 44.9742Z" fill="#D2AC68"/>
<path d="M58.2933 68.6551C57.6907 68.041 56.3709 65.948 56.3159 65.8606L56.9323 65.4673C57.3012 66.0538 58.3598 67.6753 58.8135 68.1399L58.2933 68.6551Z" fill="white"/>
<path d="M57.5235 66.7711C57.3878 66.769 57.253 66.7489 57.1226 66.7113L57.3196 66.1202C57.4271 66.1625 57.5466 66.1625 57.6541 66.1202C57.6896 66.0986 57.7164 66.0652 57.7298 66.0259V64.7471H58.4607V66.0949C58.463 66.1286 58.463 66.1624 58.4607 66.1961C58.457 66.2263 58.4469 66.2553 58.4309 66.2812C58.3443 66.4123 58.2281 66.521 58.0918 66.5986L58.0505 66.6262C57.8922 66.7238 57.7094 66.7741 57.5235 66.7711Z" fill="white"/>
<path d="M58.9166 66.654L58.5637 66.1089H59.7117V64.7266H60.4334V68.7286H59.7117V66.6632L58.9166 66.654Z" fill="white"/>
<path d="M63.5909 64.8391H62.8553V67.1598C62.8551 67.1998 62.8438 67.2388 62.8226 67.2726C62.8014 67.3064 62.7713 67.3336 62.7355 67.3511C62.6997 67.3685 62.6598 67.3756 62.6203 67.3715C62.5807 67.3674 62.5431 67.3522 62.5116 67.3278C62.3306 67.1852 61.8724 66.8126 61.5241 66.5297C61.4923 66.504 61.4692 66.469 61.4581 66.4296C61.4469 66.3902 61.4482 66.3483 61.4618 66.3097C61.4754 66.2711 61.5006 66.2377 61.5339 66.214C61.5672 66.1904 61.607 66.1777 61.6478 66.1778H62.058V64.8368H60.2891V64.3354H63.584" fill="white"/>
<path d="M72.7929 64.7795V68.7286H71.9863V66.5252H70.7238V67.1876C70.7246 67.2311 70.7118 67.2737 70.6871 67.3094C70.6625 67.3451 70.6272 67.3722 70.5864 67.3867C70.5456 67.4012 70.5013 67.4024 70.4597 67.3902C70.4182 67.378 70.3815 67.353 70.3549 67.3187C70.0593 66.9507 69.6675 66.4654 69.5163 66.2745C69.4923 66.2408 69.4779 66.2012 69.4744 66.16C69.471 66.1187 69.4787 66.0773 69.4968 66.0401C69.5149 66.0029 69.5426 65.9713 69.5771 65.9486C69.6116 65.9259 69.6515 65.9129 69.6927 65.9111H71.984V64.7749" fill="white"/>
<path d="M64.7297 64.8394H63.9346V68.731H64.7297V64.8394Z" fill="white"/>
<path d="M68.5516 64.8096H67.8184V66.139H68.5516V64.8096Z" fill="white"/>
<path d="M67.5688 68.6273C67.4451 68.6224 67.3222 68.6047 67.2021 68.5744C66.9047 68.4886 66.6284 68.3413 66.391 68.142C66.1314 67.938 65.9254 67.6735 65.7907 67.3715C65.7027 67.1575 65.6635 66.9265 65.6761 66.6953C65.6894 66.4117 65.7946 66.1402 65.9758 65.9222C66.157 65.7043 66.4042 65.5517 66.6797 65.4878H66.7141H68.011V66.1479H66.7897C66.6611 66.1855 66.5476 66.2629 66.4653 66.369C66.3831 66.4752 66.3362 66.6046 66.3314 66.739C66.2925 67.4681 67.1403 67.8522 67.248 67.889C67.301 67.9153 67.3573 67.9346 67.4152 67.9465C67.5317 67.9745 67.6525 67.9788 67.7706 67.959C67.8886 67.9393 68.0016 67.8959 68.1026 67.8315C68.2432 67.718 68.3413 67.5599 68.3808 67.3832C68.4204 67.2065 68.399 67.0216 68.3203 66.8586C68.3079 66.837 68.2941 66.8163 68.2791 66.7965L68.2676 66.7781C68.2505 66.7506 68.2314 66.7244 68.2103 66.6999L68.6984 66.2583C68.7435 66.3074 68.7842 66.3605 68.8198 66.417C68.8479 66.4578 68.8739 66.5 68.8977 66.5435C69.0772 66.8959 69.1101 67.3053 68.9894 67.682C68.928 67.8516 68.8347 68.0078 68.7144 68.142C68.6176 68.2588 68.5032 68.3597 68.3753 68.441C68.2016 68.5388 68.0082 68.5962 67.8093 68.6089C67.7297 68.6208 67.6493 68.6269 67.5688 68.6273Z" fill="white"/>
<path d="M60.5138 63.5053H59.6064L59.7943 62.6313H60.7017L60.5138 63.5053Z" fill="white"/>
<path d="M16.5134 65.5178C16.3817 65.52 16.2517 65.5485 16.131 65.6013C16.0103 65.6542 15.9012 65.7306 15.81 65.826V64.8416H19.5998V64.17H15.6221L14.5268 62.1851L13.8692 62.6244L15.1226 64.17H12.6182V64.837H15.079V66.8035C14.9782 66.953 14.8705 67.2865 14.355 67.2635C13.7799 67.2428 13.7982 66.6977 13.7982 66.5114C13.8371 65.9134 14.6758 65.8858 14.6758 65.8858L14.5681 65.2832C14.143 65.2839 13.7321 65.4364 13.4087 65.7133C13.1452 65.9594 13.0948 66.2078 13.0948 66.6333C13.0948 67.0588 13.411 67.8707 14.2702 67.8845C14.6185 67.8845 14.7285 67.8224 15.079 67.5763V68.7263H15.81V66.585C15.8913 66.463 15.9991 66.3611 16.1253 66.287C16.2515 66.2129 16.3928 66.1685 16.5386 66.1572C16.7677 66.1572 16.9969 66.5367 16.9762 66.7299C17.0587 67.2773 16.3186 67.9466 16.3186 67.9466L16.8273 68.3813C17.074 68.1438 17.2952 67.8809 17.4872 67.597C17.6509 67.3369 17.7308 67.0325 17.7163 66.7253C17.717 66.5665 17.6862 66.4092 17.626 66.2624C17.5658 66.1157 17.4772 65.9823 17.3654 65.8701C17.2535 65.7578 17.1207 65.6689 16.9745 65.6084C16.8282 65.548 16.6715 65.5171 16.5134 65.5178Z" fill="white"/>
<path d="M23.0072 64.8346H24.1849V68.7285H24.9044V64.8346H26.49C26.6003 64.9244 26.6873 65.0398 26.7436 65.1708C26.7999 65.3017 26.8237 65.4444 26.813 65.5867C26.813 66.1203 26.0546 66.1663 25.8186 66.1663C25.6857 67.0035 26.506 67.8522 27.2851 67.8522C27.7273 67.8522 28.0114 67.866 28.3849 67.6429V68.7929H29.0998V64.8346H29.6886V64.1699H24.8311C24.8322 64.1607 24.8322 64.1514 24.8311 64.1423C24.7371 63.6409 24.4553 62.7324 23.6327 62.2701C23.4598 62.1588 23.2643 62.0878 23.0605 62.0623C22.8567 62.0369 22.6498 62.0575 22.455 62.1229C22.2475 62.2056 22.0651 62.3412 21.9257 62.5162C21.7701 62.7103 21.6976 62.9584 21.724 63.2062C21.7541 63.5417 21.8466 63.8686 21.9967 64.1699H19.1807V64.8346H22.2877M22.6428 64.1699C22.6265 64.1295 22.6074 64.0903 22.5856 64.0526C22.4306 63.7831 22.3382 63.482 22.3152 63.1717C22.3064 63.1219 22.308 63.0709 22.3198 63.0219C22.3316 62.9728 22.3535 62.9267 22.3839 62.8865C22.4594 62.7916 22.5581 62.7179 22.6703 62.6726C22.7859 62.6399 22.9072 62.6326 23.0258 62.6512C23.1444 62.6699 23.2577 62.714 23.3577 62.7807C23.9489 63.1142 24.1734 63.8111 24.2513 64.1607L22.6428 64.1699ZM28.3849 64.8346V66.9713C28.2418 67.0992 28.0746 67.1971 27.8932 67.2592C27.7117 67.3212 27.5198 67.3461 27.3286 67.3324C27.1952 67.315 27.0685 67.2636 26.9606 67.1831C26.8527 67.1026 26.7672 66.9956 26.7122 66.8724C26.6814 66.7996 26.665 66.7215 26.6641 66.6424C26.8015 66.6185 26.9345 66.5735 27.0582 66.509C27.182 66.4452 27.287 66.35 27.363 66.233C27.4397 66.1063 27.4838 65.9624 27.4913 65.8144C27.4957 65.7378 27.4957 65.661 27.4913 65.5844C27.4777 65.3503 27.406 65.1234 27.2828 64.9243C27.2828 64.9105 27.2255 64.8254 27.2094 64.8254L28.3849 64.8346Z" fill="white"/>
<path d="M37.0758 64.8324H39.8025V65.251H38.6889C38.3956 65.251 38.013 65.343 37.9809 65.8812C37.9809 66.5091 38.5858 66.8495 38.5858 66.8495C38.3452 66.9622 38.3567 67.4153 38.3567 67.4153C38.3567 67.7396 38.6706 68.4273 39.6994 68.4273C40.3293 68.4151 40.9325 68.1693 41.3927 67.7373V68.7309H42.1007V64.8324H43.2257V68.7286H43.936V64.8324H48.246V65.6581L48.2345 65.6075C47.9432 65.6754 47.6672 65.7979 47.4211 65.9686C47.097 65.6611 46.6709 65.485 46.225 65.4741C46.03 65.4698 45.8365 65.5088 45.6583 65.5883C45.48 65.6678 45.3215 65.7859 45.194 65.9341C44.9554 66.2147 44.8361 66.5781 44.8617 66.9461C44.8985 67.2734 45.0299 67.5828 45.2398 67.8362C45.335 67.9658 45.4408 68.0874 45.556 68.1996C45.8341 68.4734 46.1701 68.6809 46.539 68.8068L46.7475 68.1789C46.4713 68.0838 46.2204 67.9264 46.0142 67.7189C45.924 67.6332 45.842 67.5392 45.7691 67.4383C45.6356 67.2843 45.5489 67.0951 45.5193 66.8932C45.5118 66.7962 45.5236 66.6987 45.5539 66.6063C45.5842 66.514 45.6324 66.4285 45.6958 66.355C45.7621 66.2804 45.8438 66.2213 45.9352 66.1815C46.0266 66.1418 46.1255 66.1225 46.225 66.125C46.4936 66.1355 46.7499 66.2406 46.9491 66.4217C46.8088 66.6195 46.7105 66.8442 46.6604 67.0818L47.3043 67.2221C47.3651 66.9958 47.4841 66.7895 47.6494 66.624C47.8147 66.4585 48.0204 66.3395 48.246 66.2791V68.7194H48.954V64.8347H50.5052C50.6156 64.9245 50.7026 65.0399 50.7589 65.1708C50.8151 65.3018 50.839 65.4445 50.8283 65.5868C50.8283 66.1204 50.0699 66.1664 49.8339 66.1664C49.701 67.0036 50.5213 67.8523 51.3003 67.8523C51.7425 67.8523 52.0267 67.8661 52.3979 67.643V68.793H53.1196V64.8347H53.7177V64.17H36.739C36.668 64.0734 36.5099 63.8894 36.4663 63.825C36.0653 63.3374 35.3207 62.4266 34.2644 62.215C34.0324 62.1637 33.7919 62.1654 33.5607 62.2199C33.3295 62.2745 33.1135 62.3805 32.9285 62.5301C32.6513 62.7601 32.2572 63.2707 32.5711 64.1608H31.9158V64.8232H32.5803V68.7194H33.2906V64.8324H37.0758ZM33.2012 64.17C33.1965 64.1534 33.1904 64.1372 33.1829 64.1217C32.9537 63.6111 32.995 63.2408 33.302 62.9855C33.4188 62.8929 33.5546 62.8274 33.6996 62.7936C33.8445 62.7598 33.9951 62.7585 34.1406 62.79C34.9747 62.9579 35.6002 63.71 35.9737 64.17H33.2012ZM39.7223 67.7833C39.5367 67.7833 39.1563 67.6982 39.1563 67.3624C39.1563 67.0266 39.468 66.884 39.7956 66.884C39.9656 66.8784 40.1352 66.9017 40.2974 66.953L40.1553 66.4493C39.8218 66.3582 39.469 66.367 39.1403 66.4746C39.0548 66.4794 38.9705 66.453 38.903 66.4001C38.8356 66.3472 38.7895 66.2715 38.7736 66.187C38.7576 66.1026 38.7727 66.0152 38.8162 65.9412C38.8596 65.8671 38.9284 65.8115 39.0097 65.7846H40.3272V64.8301H41.4041V66.93C40.9599 67.4039 40.3654 67.708 39.7223 67.7902V67.7833ZM52.3979 66.9645C52.2552 67.0925 52.0884 67.1904 51.9074 67.2524C51.7263 67.3145 51.5347 67.3393 51.3439 67.3256C51.2105 67.3082 51.0838 67.2568 50.9759 67.1763C50.868 67.0957 50.7824 66.9888 50.7275 66.8656C50.697 66.7926 50.68 66.7146 50.6771 66.6356C50.8147 66.6124 50.9477 66.5674 51.0712 66.5022C51.196 66.439 51.302 66.3438 51.3782 66.2262C51.455 66.0995 51.4991 65.9556 51.5065 65.8076C51.512 65.731 51.512 65.6541 51.5065 65.5776C51.4947 65.3435 51.4238 65.1163 51.3003 64.9175C51.3003 64.9037 51.243 64.8186 51.227 64.8186H52.4001L52.3979 66.9645Z" fill="white"/>
<path d="M73.3817 64.1792H55.9219V64.8347H73.3817V64.1792Z" fill="white"/>
<path d="M23.0965 67.6823C23.1369 67.6192 23.1707 67.5522 23.1973 67.4822C23.2256 67.4133 23.2427 67.3403 23.2477 67.266C23.2489 67.2043 23.2396 67.1428 23.2202 67.0843C23.1947 66.9969 23.1416 66.9203 23.069 66.8658C22.9553 66.79 22.8204 66.7529 22.6841 66.76C22.0563 66.76 22.1456 67.4017 22.1456 67.4017V67.4201C21.6232 67.4385 21.2291 67.3327 21 67.1119C20.9215 67.0315 20.8606 66.9356 20.8211 66.8302C20.7817 66.7249 20.7646 66.6124 20.7708 66.5001C20.7743 66.3872 20.8211 66.2799 20.9013 66.2007C20.9815 66.1215 21.0891 66.0763 21.2016 66.0746H22.9751V64.7222H22.3037V65.4122H21.1581C20.878 65.4234 20.613 65.5424 20.418 65.7446C20.223 65.9467 20.1131 66.2164 20.1109 66.4978C20.1053 66.6998 20.1415 66.9008 20.2172 67.088C20.2929 67.2753 20.4065 67.4448 20.5509 67.5857C20.798 67.8145 21.1061 67.9664 21.4376 68.0227L20.7319 68.6736L21.016 69.0002L22.0127 68.0802H22.0333H22.1983C22.2241 68.0778 22.2495 68.0724 22.2739 68.0641L22.542 68.876L23.1905 68.7219L22.8376 67.8962C22.8915 67.878 22.9408 67.8482 22.9819 67.8088C23.0262 67.7726 23.0648 67.7299 23.0965 67.6823Z" fill="white"/>
<path d="M20.34 66.1343C20.34 66.0584 20.34 65.9825 20.3606 65.9043H18.1014C18.0602 65.9061 18.0202 65.9191 17.9858 65.9418C17.9513 65.9645 17.9235 65.9961 17.9055 66.0333C17.8874 66.0705 17.8797 66.1119 17.8831 66.1532C17.8865 66.1944 17.901 66.234 17.925 66.2677C18.0762 66.4586 18.468 66.9439 18.7636 67.3119C18.7902 67.3462 18.8269 67.3712 18.8684 67.3834C18.91 67.3956 18.9543 67.3944 18.9951 67.3799C19.0359 67.3654 19.0712 67.3383 19.0958 67.3026C19.1205 67.2669 19.1333 67.2242 19.1325 67.1808V66.5184H20.3011C20.3148 66.3942 20.3308 66.2631 20.34 66.1343Z" fill="white"/>
<path d="M36.3862 66.8217C36.1731 67.0309 35.8948 67.1601 35.598 67.1874C35.5099 67.1987 35.4205 67.1896 35.3365 67.1608C35.2525 67.1319 35.1763 67.0841 35.1136 67.021C35.051 66.9579 35.0036 66.8812 34.9752 66.7968C34.9467 66.7124 34.9379 66.6226 34.9495 66.5342C34.9479 66.4531 34.9628 66.3724 34.9936 66.2973C35.0243 66.2222 35.0701 66.1543 35.1282 66.0978C35.1862 66.0412 35.2553 65.9973 35.331 65.9687C35.4067 65.9401 35.4874 65.9275 35.5682 65.9316C35.7486 65.9423 35.9267 65.9779 36.0975 66.0374L35.9233 65.4348C35.9233 65.4348 34.5096 65.1473 34.2071 66.157C34.1302 66.4183 34.1399 66.6975 34.2346 66.9528C34.3198 67.2067 34.4868 67.425 34.7091 67.5732C34.9314 67.7215 35.1966 67.7913 35.4628 67.7716C36.7116 67.7716 36.7276 67.008 36.7276 67.008L36.3862 66.8217Z" fill="white"/>
<path d="M36.3748 64.6528V68.7284H37.0828V64.6528" fill="white"/>
<path d="M29.2211 57.9069H29.7779V57.417H23.7402V57.9069H25.7818" fill="#D2AC67"/>
<path d="M35.6162 56.8535L35.7491 56.2831L35.1786 56.2808L35.0503 56.8535H35.6162Z" fill="#D2AC67"/>
<path d="M51.0186 59.0914V60.6462H51.541V57.9069H52.1619V58.7533C52.16 58.8794 52.1875 59.0043 52.2425 59.1177C52.2974 59.2312 52.3781 59.3301 52.4781 59.4065C52.6416 59.5352 52.838 59.6152 53.0446 59.6371C53.2513 59.6591 53.4599 59.6222 53.6467 59.5307V60.6462H54.1691V57.9069H55.12V60.6232H55.6424V57.9069H59.1573V59.027C59.1565 59.1404 59.1795 59.2527 59.2249 59.3566C59.2703 59.4604 59.3371 59.5535 59.4208 59.6296C59.5841 59.7902 59.804 59.8795 60.0326 59.878C60.2673 59.8891 60.4977 59.8121 60.6787 59.6618C60.7658 59.5817 60.8342 59.4832 60.8789 59.3735C60.9237 59.2637 60.9438 59.1454 60.9377 59.027V57.9069H62.4683V57.417H50.4595V57.9069H51.0186V59.0914ZM60.0326 59.3398C59.9408 59.3383 59.8528 59.3031 59.7851 59.2409C59.751 59.2155 59.7231 59.1826 59.7037 59.1448C59.6842 59.1069 59.6737 59.065 59.6729 59.0224V57.9023H60.4084V59.0224C60.4085 59.0673 60.3979 59.1116 60.3776 59.1516C60.3573 59.1915 60.3278 59.2261 60.2915 59.2524C60.2182 59.3112 60.1265 59.3422 60.0326 59.3398ZM53.193 59.1213C53.0663 59.1257 52.9419 59.0868 52.8402 59.0109C52.7862 58.9692 52.7433 58.9149 52.7149 58.8528C52.6866 58.7907 52.6737 58.7226 52.6775 58.6544V57.9023H53.6398V58.9557C53.5178 59.0627 53.3619 59.123 53.1999 59.1259L53.193 59.1213Z" fill="#D2AC67"/>
<path d="M29.629 61.8885L29.4205 62.0886C29.4076 62.1012 29.3903 62.1083 29.3723 62.1083C29.3544 62.1083 29.3371 62.1012 29.3242 62.0886L28.52 61.348C28.513 61.3413 28.5074 61.3333 28.5036 61.3244C28.4998 61.3155 28.4978 61.3059 28.4978 61.2962C28.4978 61.2865 28.4998 61.2769 28.5036 61.268C28.5074 61.2591 28.513 61.2511 28.52 61.2445L28.8018 60.9777C28.8082 60.9707 28.816 60.9651 28.8247 60.9613C28.8334 60.9575 28.8427 60.9556 28.8522 60.9556C28.8617 60.9556 28.871 60.9575 28.8797 60.9613C28.8884 60.9651 28.8962 60.9707 28.9026 60.9777L29.6313 61.7827C29.6385 61.7895 29.6442 61.7978 29.648 61.807C29.6519 61.8162 29.6537 61.8261 29.6535 61.8361C29.6533 61.846 29.651 61.8559 29.6468 61.8649C29.6426 61.8739 29.6365 61.8819 29.629 61.8885Z" fill="#D2AC68"/>
<path d="M46.6559 61.8884L46.4497 62.0885C46.4364 62.1013 46.4188 62.1084 46.4004 62.1084C46.382 62.1084 46.3644 62.1013 46.3511 62.0885L45.5492 61.3479C45.5415 61.3417 45.5353 61.3338 45.5311 61.3248C45.5269 61.3159 45.5247 61.3061 45.5247 61.2962C45.5247 61.2862 45.5269 61.2765 45.5311 61.2675C45.5353 61.2586 45.5415 61.2507 45.5492 61.2444L45.831 60.9776C45.8376 60.9709 45.8455 60.9656 45.8541 60.962C45.8628 60.9584 45.8721 60.9565 45.8814 60.9565C45.8908 60.9565 45.9001 60.9584 45.9087 60.962C45.9174 60.9656 45.9252 60.9709 45.9318 60.9776L46.6605 61.7826C46.6676 61.7896 46.6731 61.798 46.6767 61.8073C46.6804 61.8166 46.6821 61.8266 46.6816 61.8365C46.6812 61.8465 46.6787 61.8563 46.6742 61.8652C46.6698 61.8742 46.6636 61.882 46.6559 61.8884Z" fill="#D2AC68"/>
<path d="M40.1577 60.6462V57.9069H40.9917V58.7533C40.9903 58.8793 41.0181 59.004 41.073 59.1174C41.1279 59.2307 41.2083 59.3297 41.3079 59.4065C41.4718 59.5343 41.6678 59.614 41.8741 59.6367C42.0804 59.6594 42.2889 59.6243 42.4765 59.5353V60.6462H43.0012V57.9069H45.54V58.5118C45.54 58.5118 44.4173 58.5003 44.0277 58.5118C43.6749 58.5233 43.5695 58.7418 43.7711 59.0454C43.8874 59.202 44.0153 59.3497 44.1538 59.487C44.184 59.5334 44.2276 59.5694 44.2788 59.5904C44.3299 59.6113 44.3862 59.6162 44.4402 59.6043C44.5685 59.5675 44.5433 59.4318 44.5433 59.326C44.5433 59.096 44.6006 59.0385 44.8503 59.0293H45.5377V60.6393H46.0555V57.9069H46.5138V57.417H37.8801V57.9069H38.1505V58.7533C38.1485 58.8794 38.1761 59.0043 38.2311 59.1177C38.286 59.2312 38.3667 59.3301 38.4667 59.4065C38.6616 59.5623 38.9051 59.6438 39.1541 59.6365C39.3234 59.638 39.4906 59.5994 39.6421 59.5238V60.6393M39.6421 58.9534C39.5176 59.0603 39.3592 59.119 39.1953 59.119C39.0687 59.1234 38.9442 59.0845 38.8425 59.0086C38.7886 58.9669 38.7456 58.9126 38.7173 58.8505C38.6889 58.7884 38.6761 58.7203 38.6798 58.6521V57.9H39.6399L39.6421 58.9534ZM42.0068 59.1259C41.9441 59.126 41.8821 59.1132 41.8246 59.0883C41.767 59.0633 41.7152 59.0268 41.6723 58.981C41.6256 58.9399 41.5882 58.8893 41.5625 58.8326C41.5369 58.7759 41.5235 58.7144 41.5233 58.6521V58.084L42.2657 59.0845C42.1807 59.1164 42.0907 59.1328 41.9999 59.1328L42.0068 59.1259ZM42.4834 58.7418L41.8326 57.9H42.4834V58.7418Z" fill="#D2AC68"/>
<path d="M39.8689 61.9205C39.7737 61.9215 39.6793 61.9027 39.5916 61.8653C39.5227 61.8348 39.4611 61.79 39.4109 61.7336C39.3607 61.6773 39.3231 61.6108 39.3006 61.5387C39.2636 61.4387 39.2519 61.331 39.2667 61.2254C39.2815 61.1198 39.3223 61.0196 39.3854 60.9338C39.4897 60.8112 39.6205 60.7144 39.7679 60.6506C39.9152 60.5868 40.0752 60.5578 40.2355 60.5658C40.356 60.5637 40.4756 60.5863 40.5871 60.6321C40.6986 60.678 40.7996 60.7462 40.8839 60.8326C41.0925 61.0626 41.1887 61.3984 41.1727 61.8791L40.7281 61.9872C40.7648 61.5709 40.6869 61.265 40.5632 61.1339C40.5183 61.0904 40.4651 61.0565 40.4068 61.0344C40.3485 61.0122 40.2863 61.0022 40.224 61.0051C40.1341 60.9996 40.0441 61.0139 39.9602 61.0468C39.8763 61.0798 39.8006 61.1307 39.7383 61.196C39.7168 61.2245 39.7033 61.2584 39.6993 61.294C39.6952 61.3296 39.7008 61.3657 39.7154 61.3984C39.7314 61.4398 39.7497 61.4559 39.7704 61.4628C39.8986 61.4891 40.0318 61.4738 40.1507 61.4191L40.3249 61.8216C40.1805 61.8833 40.0258 61.9169 39.8689 61.9205Z" fill="#D2AC68"/>
<path d="M57.8191 57.73V60.6947H58.3346V57.73" fill="#D2AC67"/>
<path d="M57.8282 59.3078C57.6737 59.4604 57.4713 59.5547 57.2554 59.5746C57.1913 59.5825 57.1263 59.5756 57.0653 59.5544C57.0043 59.5332 56.949 59.4983 56.9034 59.4524C56.8579 59.4065 56.8234 59.3508 56.8026 59.2894C56.7818 59.2281 56.7752 59.1628 56.7834 59.0985C56.782 59.0387 56.793 58.9792 56.8158 58.9238C56.8386 58.8685 56.8727 58.8186 56.9158 58.7772C56.959 58.7359 57.0102 58.704 57.0663 58.6837C57.1224 58.6634 57.1822 58.655 57.2417 58.6592C57.3728 58.6668 57.5023 58.6923 57.6266 58.7351L57.5006 58.2981C57.5006 58.2981 56.4718 58.0888 56.2518 58.8225C56.1962 59.0129 56.2035 59.2162 56.2724 59.4021C56.3341 59.5871 56.4555 59.7461 56.6173 59.854C56.7792 59.9619 56.9723 60.0125 57.166 59.9978C58.0826 59.9978 58.0826 59.4435 58.0826 59.4435L57.8282 59.3078Z" fill="#D2AC67"/>
<path d="M61.4807 57.73V60.6947H61.9963V57.73" fill="#D2AC67"/>
<path d="M57.6541 62.1344C57.444 62.1435 57.2368 62.082 57.0653 61.9597C56.9724 61.8818 56.902 61.7803 56.8617 61.6658C56.8214 61.5512 56.8126 61.4279 56.8361 61.3087V61.288C56.9736 60.6739 57.7068 60.5566 58.1216 60.5842H58.337V61.012H58.0918C58.0918 61.012 57.3631 60.9775 57.2646 61.3616C57.2509 61.5111 57.299 61.5709 57.3402 61.5916C57.48 61.702 57.8168 61.6997 58.1216 61.5916L58.2751 62.0056C58.0771 62.0845 57.867 62.128 57.6541 62.1344Z" fill="#D2AC67"/>
<path d="M35.0709 59.308C34.9168 59.4613 34.7142 59.5557 34.4981 59.5748C34.4351 59.5824 34.3712 59.5756 34.3111 59.5551C34.2511 59.5345 34.1964 59.5007 34.1511 59.4562C34.1058 59.4116 34.071 59.3573 34.0494 59.2975C34.0278 59.2376 34.0198 59.1736 34.0261 59.1102C34.025 59.0505 34.0363 58.9912 34.0592 58.936C34.0821 58.8808 34.1162 58.831 34.1593 58.7898C34.2023 58.7485 34.2534 58.7166 34.3094 58.6962C34.3653 58.6757 34.4249 58.6671 34.4843 58.6709C34.6155 58.6785 34.745 58.7041 34.8693 58.7468L34.7433 58.3098C34.7433 58.3098 33.7144 58.1005 33.4945 58.8342C33.4389 59.0246 33.4462 59.2279 33.5151 59.4138C33.5768 59.5988 33.6981 59.7578 33.86 59.8657C34.0219 59.9736 34.215 60.0242 34.4087 60.0095C35.3252 60.0095 35.3252 59.4552 35.3252 59.4552L35.0709 59.308Z" fill="#D2AC67"/>
<path d="M35.0571 57.73V60.6947H35.5727V57.73" fill="#D2AC67"/>
<path d="M31.4529 57.417V57.9069H33.8015H34.9471H35.4718H36.0263V57.417H31.4529Z" fill="#D2AC67"/>
<path d="M32.8299 60.7451L31.9317 59.7124C31.8394 59.5927 31.7828 59.4494 31.7682 59.2988C31.7536 59.1482 31.7817 58.9966 31.8492 58.8614C31.916 58.7233 32.0202 58.6068 32.1499 58.5255C32.2796 58.4441 32.4295 58.4011 32.5824 58.4014H33.6822V58.8407H32.5824C32.5099 58.8426 32.4395 58.8652 32.3794 58.906C32.3193 58.9467 32.2721 59.0039 32.2433 59.0707C32.2116 59.1306 32.1975 59.1983 32.2028 59.2659C32.2081 59.3336 32.2324 59.3983 32.2731 59.4525L33.1621 60.4737L32.8299 60.7451Z" fill="#D2AC67"/>
<path d="M27.9656 60.7451L27.0674 59.7124C26.9752 59.5927 26.9185 59.4494 26.9039 59.2988C26.8893 59.1482 26.9174 58.9966 26.9849 58.8614C27.0517 58.7233 27.1559 58.6068 27.2856 58.5255C27.4153 58.4441 27.5652 58.4011 27.7182 58.4014H28.8203V58.8407H27.725C27.6525 58.8426 27.5821 58.8652 27.522 58.906C27.4619 58.9467 27.4147 59.0039 27.3859 59.0707C27.3542 59.1306 27.3401 59.1983 27.3454 59.2659C27.3507 59.3336 27.3751 59.3983 27.4157 59.4525L28.3047 60.4737L27.9656 60.7451Z" fill="#D2AC67"/>
<path d="M24.9432 60.7451L24.045 59.7124C23.9527 59.5927 23.896 59.4494 23.8814 59.2988C23.8669 59.1483 23.8949 58.9966 23.9625 58.8614C24.029 58.7231 24.1332 58.6065 24.2629 58.5251C24.3927 58.4437 24.5427 58.4008 24.6957 58.4014H25.7978V58.8407H24.6957C24.6232 58.8426 24.5528 58.8652 24.4927 58.906C24.4326 58.9467 24.3854 59.0039 24.3566 59.0707C24.3248 59.1306 24.3108 59.1983 24.3161 59.2659C24.3213 59.3336 24.3457 59.3983 24.3864 59.4525L25.2731 60.4737L24.9432 60.7451Z" fill="#D2AC67"/>
<path d="M61.1345 62.1H61.0864C60.3509 62.0793 60.1195 61.7872 60.0003 61.5365C60.0003 61.525 60.0003 61.5158 59.9866 61.5089L60.2959 61.3134L60.3303 61.3778C60.3853 61.4951 60.4907 61.7159 61.0979 61.7343C61.2605 61.7487 61.4236 61.7122 61.5647 61.6298C61.7058 61.5475 61.8181 61.4233 61.8861 61.2743C61.8993 61.2494 61.9074 61.2221 61.9097 61.1941C61.9121 61.166 61.9087 61.1377 61.8998 61.111C61.8868 61.0796 61.8657 61.0522 61.8388 61.0316C61.8118 61.011 61.7799 60.9979 61.7463 60.9937C61.5493 60.9431 61.2376 61.1409 61.1437 61.2122L60.9146 60.9247C60.965 60.8833 61.4278 60.5337 61.8311 60.6395C61.9208 60.6584 62.0044 60.6991 62.0748 60.758C62.1451 60.817 62.1999 60.8924 62.2344 60.9776C62.262 61.0519 62.274 61.1311 62.2697 61.2102C62.2653 61.2894 62.2447 61.3668 62.2092 61.4376C62.1142 61.6414 61.9618 61.8128 61.7708 61.9306C61.5798 62.0483 61.3586 62.1072 61.1345 62.1Z" fill="#D2AC67"/>
<path d="M49.4925 58.65C49.3787 58.7329 49.2378 58.7691 49.0984 58.7512L49.2931 59.1307C49.394 59.0986 49.5007 59.0892 49.6057 59.1031C49.7106 59.117 49.8112 59.1539 49.9003 59.2112C49.9537 59.2657 49.9937 59.3319 50.0171 59.4045C50.0406 59.4772 50.0469 59.5543 50.0355 59.6298C50.0301 59.7398 49.9815 59.8432 49.9003 59.9173C49.8331 59.9628 49.7545 59.9884 49.6735 59.9913C49.5925 59.9941 49.5123 59.9741 49.4421 59.9334C49.256 59.8306 49.0985 59.6827 48.9838 59.5033C48.8695 59.3242 48.7456 59.1515 48.6126 58.9858L48.1887 59.2641C48.3789 59.5148 48.5393 59.7885 48.7478 60.0231C48.9474 60.2709 49.2285 60.4389 49.5406 60.4969C49.6856 60.5117 49.8319 60.4915 49.9676 60.4381C50.1032 60.3847 50.2242 60.2996 50.3205 60.1898C50.4168 60.0801 50.4857 59.9489 50.5214 59.8071C50.5571 59.6653 50.5587 59.517 50.5259 59.3745L51.1972 59.202L51.0918 58.8524C50.8658 58.9193 50.6363 58.9738 50.4044 59.0157C50.3213 58.8978 50.2163 58.797 50.0951 58.719C50.1669 58.6399 50.2217 58.5468 50.256 58.4455C50.2903 58.3442 50.3034 58.2369 50.2944 58.1302C50.2845 58.0237 50.2532 57.9203 50.2024 57.8262C50.1516 57.7321 50.0824 57.6494 49.9989 57.5828C49.8803 57.4977 49.7437 57.4413 49.5998 57.4182C49.4558 57.395 49.3085 57.4057 49.1694 57.4494C48.8907 57.5422 48.6437 57.712 48.4568 57.9393L48.8417 58.2728C48.9179 58.1742 49.0132 58.0921 49.1219 58.0316C49.2306 57.9711 49.3505 57.9335 49.4741 57.9209C49.5328 57.9178 49.5912 57.9312 49.6426 57.9596C49.6941 57.9881 49.7365 58.0305 49.7651 58.0819C49.8522 58.2843 49.6368 58.5419 49.4856 58.65" fill="#D2AC67"/>
<path d="M26.2792 57.9072H25.7522V60.7247H26.2792V57.9072Z" fill="#D2AC67"/>
<path d="M29.338 57.9072H28.811V60.7247H29.338V57.9072Z" fill="#D2AC67"/>
</g>
<defs>
<clipPath id="clip0_12_2174">
<rect width="86" height="69" fill="white"/>
</clipPath>
</defs>
</svg>