<?xml version="1.0" encoding="utf-8"?>
<svg viewBox="0 0 500 500" xmlns="http://www.w3.org/2000/svg">
  <defs>
    <linearGradient id="gradientFill-1" x1="0" x2="1" y1="0" y2="1" gradientUnits="objectBoundingBox" spreadMethod="pad">
      <stop offset="0" stop-color="rgb(203,206,208)" stop-opacity="1"/>
      <stop offset="1" stop-color="rgb(132,131,139)" stop-opacity="1"/>
    </linearGradient>
    <linearGradient id="gradientFill-2" x1="0" x2="1" y1="0" y2="1" gradientUnits="objectBoundingBox" spreadMethod="pad">
      <stop offset="0" stop-color="rgb(39,109,195)" stop-opacity="1"/>
      <stop offset="1" stop-color="rgb(22,92,170)" stop-opacity="1"/>
    </linearGradient>
  </defs>
  <path d="M 249.999 405.464 C 114.707 405.464 5.029 323.441 5.029 222.261 C 5.029 121.08 114.707 39.057 249.999 39.057 C 385.294 39.057 494.971 121.08 494.971 222.261 C 494.971 323.441 385.294 405.464 249.999 405.464 Z M 287.497 110.684 C 184.663 110.684 101.298 166.758 101.298 235.929 C 101.298 305.1 184.663 361.174 287.497 361.174 C 390.331 361.174 466.222 322.837 466.222 235.929 C 466.222 149.048 390.331 110.684 287.497 110.684 Z" fill="url(#gradientFill-1)" fill-rule="evenodd" style=""/>
  <path d="M 378.107 322.813 C 378.107 322.813 392.934 327.809 401.547 332.677 C 404.536 334.366 409.708 337.735 413.438 342.161 C 417.092 346.495 418.873 350.885 418.873 350.885 L 477.306 460.897 L 382.862 460.944 L 338.699 368.335 C 338.699 368.335 329.656 350.984 324.091 345.954 C 319.45 341.758 317.471 340.263 312.88 340.263 C 309.685 340.263 290.442 340.263 290.442 340.263 L 290.46 460.878 L 206.888 460.917 L 206.888 152.815 L 374.709 152.815 C 374.709 152.815 451.147 154.356 451.147 235.562 C 451.147 316.769 378.107 322.813 378.107 322.813 Z M 341.757 219.647 L 291.164 219.611 L 291.139 271.999 L 341.757 271.982 C 341.757 271.982 365.197 271.9 365.197 245.332 C 365.197 218.229 341.757 219.647 341.757 219.647 Z" fill="url(#gradientFill-2)" fill-rule="evenodd" style=""/>
</svg>